<svg version="1" xmlns="http://www.w3.org/2000/svg" width="933.333" height="933.333" viewBox="0 0 700.000000 700.000000"><path d="M189.9.4c-.2.2-5.6.6-11.9 1-6.3.3-12.6.8-14 1-1.4.3-5.4.7-8.9 1.1-3.6.3-6.7.8-7.1 1-.3.2-2.8.6-5.4.9-13.9 1.7-37.6 9.9-53 18.4C55 42.9 30.3 71 15.3 108.5c-3.9 9.6-8.4 26.5-9.8 37-.4 2.7-.9 5.9-1.1 7-.4 2-1.5 12.3-1.9 18.5C1 188.8.7 224.3.7 348.5c0 147.1.3 167.9 2.8 191.4 6.3 59.7 32.8 103.7 80.2 133 4.6 2.8 8.6 5.1 9 5.1.5 0 3.7 1.5 7.3 3.3 13.3 6.8 35.2 12.8 55.5 15.2 2.8.4 6.4.8 8 1 12 1.7 43.9 2 186 2 143.9 0 174.9-.3 189-2 4.2-.5 23.6-3.4 26.4-4 16.5-3.2 40.1-12.7 55.4-22.1 13.3-8.3 31.3-24.3 40.9-36.4 4.1-5.2 13.8-19.6 13.8-20.4 0-.4 1-2.3 2.3-4.4 7.1-11.3 14.4-32.8 18.1-52.7.4-2 1.6-10.7 2.2-15.5 1.6-12.9 1.9-41.8 1.9-192.5 0-154.9-.3-180.7-2-193.5-.3-1.9-.8-5.3-1.1-7.5-4.9-37.4-23.3-73.9-49.6-99-10.7-10.1-11.4-10.7-21.8-17.8-8-5.5-29.5-16.7-32-16.7-.9 0-2-.4-2.5-.9-1.7-1.6-20.9-6.9-31-8.6-1.6-.3-4.1-.7-5.4-1-1.4-.2-7.2-.9-13-1.5S528.9 1.6 527 1.3C523.2.7 190.6-.2 189.9.4zm218 191.9c5.1 15.5 9.6 29.1 10 30.2.5 1.1 2.4 6.9 4.4 13 1.9 6 10.3 31.9 18.7 57.5 8.4 25.6 16.3 50.1 17.7 54.5 1.4 4.4 2.9 8.9 3.4 10 .4 1.1 4.8 14.4 9.7 29.5 5 15.1 16.3 49.6 25.1 76.6 8.9 27 16.1 49.4 16.1 49.7 0 .4-16.7.7-37 .7h-37l-1-2.3c-.5-1.2-3.7-11-7-21.7-8.6-27.1-10.8-34-14.6-46-1.9-5.8-3.4-11.1-3.4-11.8 0-1.5 6.1-1.4-64.8-1.4-35-.1-60.6.3-61.1.8-.4.5-6.6 19.2-13.7 41.6L260.6 514h-72.4l3-8.7c1.6-4.9 3.1-9.5 3.4-10.3.2-.8 4-12.1 8.3-25 19.1-56.4 68.2-202.3 91.3-271 5.4-16.2 10.3-30.7 10.9-32.2l1.1-2.7 46.2.1h46.3l9.2 28.1z"/><path d="M349.5 227.8c-1.1.8-2.4 4.5-9 25.7-2.6 8.2-6.6 21.3-9 29-19.2 61.5-27.5 88.7-27.1 89.3.4.7 90.4.8 91 .1.3-.3-7.5-26.7-17.5-58.9-1.6-5.2-3.8-12.4-4.9-16-1-3.6-3-10.1-4.4-14.5-1.3-4.4-3.6-12.1-5.1-17-1.4-5-3-10.1-3.5-11.5-.5-1.4-2.3-7.5-4.1-13.5-3.2-11.2-4.6-14-6.4-12.7z"/></svg>