<?xml version="1.0" encoding="UTF-8"?>
<svg width="177px" height="50px" viewBox="0 0 177 50" version="1.1" xmlns="http://www.w3.org/2000/svg" xmlns:xlink="http://www.w3.org/1999/xlink">
    <!-- Generator: Sketch 59.1 (86144) - https://sketch.com -->
    <title>logo</title>
    <desc>Created with Sketch.</desc>
    <g id="logo" stroke="none" stroke-width="1" fill="none" fill-rule="evenodd">
        <path d="M18.6435547,35 L25.3427734,15.09375 L30.6201172,15.09375 L37.1416016,35 L32.8896484,35 L31.3857422,30.2558594 L24.2626953,30.2558594 L22.7587891,35 L18.6435547,35 Z M25.2060547,26.9335938 L30.4560547,26.9335938 L27.9677734,18.7167969 L27.7626953,18.7167969 L25.2060547,26.9335938 Z M39.0966797,35 L39.0966797,15.09375 L47.1083984,15.09375 C48.1839246,15.09375 49.1455036,15.2236315 49.9931641,15.4833984 C50.8408246,15.7431654 51.5266901,16.0804016 52.0507812,16.4951172 C52.5748724,16.9098328 53.0055322,17.4065726 53.3427734,17.9853516 C53.6800147,18.5641305 53.9147129,19.1406221 54.046875,19.7148438 C54.1790371,20.2890654 54.2451172,20.8951791 54.2451172,21.5332031 C54.2451172,22.6451879 54.0605487,23.6386675 53.6914062,24.5136719 C53.3222638,25.3886763 52.8209667,26.097328 52.1875,26.6396484 C51.5540333,27.1819689 50.8385457,27.5943996 50.0410156,27.8769531 C49.2434856,28.1595066 48.3935592,28.3007812 47.4912109,28.3007812 L43.0068359,28.3007812 L43.0068359,35 L39.0966797,35 Z M43.0068359,25.1289062 L46.8759766,25.1289062 C47.4957713,25.1289062 48.0335264,25.0286468 48.4892578,24.828125 C48.9449893,24.6276032 49.3004545,24.3541684 49.5556641,24.0078125 C49.8108737,23.6614566 49.9977208,23.2832052 50.1162109,22.8730469 C50.2347011,22.4628886 50.2939453,22.0162785 50.2939453,21.5332031 C50.2939453,21.0501278 50.2141935,20.6126322 50.0546875,20.2207031 C49.8951815,19.8287741 49.6946627,19.5143241 49.453125,19.2773438 C49.2115873,19.0403634 48.9358739,18.8421232 48.6259766,18.6826172 C48.3160792,18.5231112 48.0153009,18.4137373 47.7236328,18.3544922 C47.4319647,18.2952471 47.1494154,18.265625 46.8759766,18.265625 L43.0068359,18.265625 L43.0068359,25.1289062 Z M57.3486328,15.09375 L61.2587891,15.09375 L61.2587891,35 L57.3486328,35 L57.3486328,15.09375 Z M80.1396484,27.0019531 L80.1396484,24.0898438 L87.6455078,24.0898438 L87.6455078,33.2089844 C86.6884718,33.9563839 85.6767631,34.4873031 84.6103516,34.8017578 C83.54394,35.1162125 82.3180408,35.2734375 80.9326172,35.2734375 C79.5016204,35.2734375 78.2460992,35.1116553 77.1660156,34.7880859 C76.0859321,34.4645166 75.1927119,34.0179065 74.4863281,33.4482422 C73.7799444,32.8785779 73.20801,32.158533 72.7705078,31.2880859 C72.3330056,30.4176389 72.0231129,29.4788462 71.8408203,28.4716797 C71.6585277,27.4645132 71.5673828,26.322923 71.5673828,25.046875 C71.5673828,23.8802025 71.6653636,22.8138069 71.8613281,21.8476562 C72.0572926,20.8815056 72.3216129,20.0498082 72.6542969,19.3525391 C72.9869808,18.65527 73.397133,18.0400417 73.8847656,17.5068359 C74.3723983,16.9736301 74.8873671,16.5406918 75.4296875,16.2080078 C75.9720079,15.8753239 76.5712858,15.6018891 77.2275391,15.3876953 C77.8837923,15.1735015 78.5240854,15.025391 79.1484375,14.9433594 C79.7727896,14.8613277 80.4313116,14.8203125 81.1240234,14.8203125 C82.0537156,14.8203125 82.9309855,14.9205719 83.7558594,15.1210938 C84.5807333,15.3216156 85.2688775,15.5813786 85.8203125,15.9003906 C86.3717475,16.2194026 86.8138004,16.513345 87.1464844,16.7822266 C87.4791683,17.0511081 87.7457672,17.3131498 87.9462891,17.5683594 L85.5400391,19.9882812 C85.3395172,19.7330716 85.0706397,19.4687514 84.7333984,19.1953125 C84.3961572,18.9218736 83.8994173,18.6484389 83.2431641,18.375 C82.5869108,18.1015611 81.9124384,17.9648438 81.2197266,17.9648438 C80.3264929,17.9648438 79.5517611,18.0764963 78.8955078,18.2998047 C78.2392545,18.5231131 77.6490912,18.9036431 77.125,19.4414062 C76.6009088,19.9791694 76.2067071,20.7356722 75.9423828,21.7109375 C75.6780586,22.6862028 75.5458984,23.8802013 75.5458984,25.2929688 C75.5458984,26.2317755 75.6142571,27.0657516 75.7509766,27.7949219 C75.887696,28.5240922 76.0882148,29.1324845 76.3525391,29.6201172 C76.6168633,30.1077498 76.9130843,30.517902 77.2412109,30.8505859 C77.5693376,31.1832699 77.9567035,31.4384757 78.4033203,31.6162109 C78.8499371,31.7939462 79.29199,31.9192705 79.7294922,31.9921875 C80.1669944,32.0651045 80.6500625,32.1015625 81.1787109,32.1015625 C81.6253278,32.1015625 82.0970027,32.0332038 82.59375,31.8964844 C83.0904973,31.7597649 83.4710273,31.5865896 83.7353516,31.3769531 L83.7353516,27.0019531 L80.1396484,27.0019531 Z M103.77832,35 C103.395506,35.072917 102.92611,35.109375 102.370117,35.109375 C100.847974,35.109375 99.7952503,34.6308642 99.2119141,33.6738281 C98.7106095,34.1386742 98.072595,34.5214829 97.2978516,34.8222656 C96.5231081,35.1230484 95.72559,35.2734375 94.9052734,35.2734375 C94.4313127,35.2734375 93.9755881,35.227865 93.5380859,35.1367188 C93.1005837,35.0455725 92.6676454,34.8883475 92.2392578,34.6650391 C91.8108703,34.4417307 91.4417333,34.16146 91.1318359,33.8242188 C90.8219386,33.4869775 90.57129,33.0449246 90.3798828,32.4980469 C90.1884756,31.9511691 90.0927734,31.3359409 90.0927734,30.6523438 C90.0927734,30.2877586 90.1292314,29.9368506 90.2021484,29.5996094 C90.2750655,29.2623681 90.3935539,28.9069029 90.5576172,28.5332031 C90.7216805,28.1595033 90.9609359,27.8222671 91.2753906,27.5214844 C91.5898453,27.2207016 91.9703754,26.9472669 92.4169922,26.7011719 C92.863609,26.4550769 93.4264289,26.2636726 94.1054688,26.1269531 C94.7845086,25.9902337 95.5432901,25.921875 96.3818359,25.921875 C97.1839233,25.921875 97.9495406,25.9446612 98.6787109,25.9902344 L98.7060547,24.9648438 C98.7242839,24.3359344 98.4850285,23.8824884 97.9882812,23.6044922 C97.491534,23.326496 96.7919967,23.1875 95.8896484,23.1875 C94.7047467,23.1875 93.3785881,23.4973927 91.9111328,24.1171875 L90.8310547,21.2734375 C92.7451268,20.3802039 94.7412005,19.9335938 96.8193359,19.9335938 C98.8427836,19.9335938 100.296545,20.3688108 101.180664,21.2392578 C102.064783,22.1097049 102.502279,23.5611878 102.493164,25.59375 L102.46582,30.9257812 C102.46582,31.4088566 102.556965,31.7529287 102.739258,31.9580078 C102.92155,32.163087 103.267901,32.265625 103.77832,32.265625 L103.77832,35 Z M98.6787109,31.3222656 L98.6787109,28.6152344 C97.9768845,28.551432 97.2067099,28.5195312 96.3681641,28.5195312 C96.0491521,28.5195312 95.7529311,28.5491533 95.4794922,28.6083984 C95.2060533,28.6676435 94.9440117,28.7656243 94.6933594,28.9023438 C94.4427071,29.0390632 94.2444669,29.2441393 94.0986328,29.5175781 C93.9527987,29.791017 93.8798828,30.1191387 93.8798828,30.5019531 C93.8798828,31.6686256 94.531569,32.2519531 95.8349609,32.2519531 C97.0745505,32.2519531 98.0224577,31.9420604 98.6787109,31.3222656 Z M111.543945,35.0957031 C111.106443,35.2141933 110.66439,35.2734375 110.217773,35.2734375 C108.659172,35.2734375 107.556318,34.8997433 106.90918,34.1523438 C106.262041,33.4049442 105.938477,32.2610754 105.938477,30.7207031 L105.938477,14 L109.725586,14 L109.725586,29.9550781 C109.725586,30.7024777 109.809895,31.2220037 109.978516,31.5136719 C110.147136,31.80534 110.45475,31.9511719 110.901367,31.9511719 C111.120118,31.9511719 111.284179,31.9283856 111.393555,31.8828125 L111.543945,35.0957031 Z M118.926758,35.0957031 C118.489256,35.2141933 118.047203,35.2734375 117.600586,35.2734375 C116.041984,35.2734375 114.939131,34.8997433 114.291992,34.1523438 C113.644854,33.4049442 113.321289,32.2610754 113.321289,30.7207031 L113.321289,14 L117.108398,14 L117.108398,29.9550781 C117.108398,30.7024777 117.192707,31.2220037 117.361328,31.5136719 C117.529949,31.80534 117.837563,31.9511719 118.28418,31.9511719 C118.502931,31.9511719 118.666992,31.9283856 118.776367,31.8828125 L118.926758,35.0957031 Z M123.711914,28.9296875 C123.812175,30.1145893 124.15169,30.944008 124.730469,31.4179688 C125.309248,31.8919295 126.250319,32.1289062 127.553711,32.1289062 C128.43783,32.1289062 129.26497,32.0263682 130.035156,31.8212891 C130.805342,31.6162099 131.40462,31.4088552 131.833008,31.1992188 L132.87207,34.0839844 C132.188473,34.4759134 131.322596,34.7721344 130.274414,34.9726562 C129.226232,35.1731781 128.127935,35.2734375 126.979492,35.2734375 C126.086259,35.2734375 125.295576,35.2028002 124.607422,35.0615234 C123.919267,34.9202467 123.274417,34.6718768 122.672852,34.3164062 C122.071286,33.9609357 121.576825,33.493818 121.189453,32.9150391 C120.802081,32.3362601 120.499025,31.5979863 120.280273,30.7001953 C120.061522,29.8024044 119.952148,28.7519591 119.952148,27.5488281 C119.952148,25.0149613 120.517247,23.112311 121.647461,21.8408203 C122.777675,20.5693296 124.532215,19.9335938 126.911133,19.9335938 C131.140321,19.9335938 133.254883,22.2623465 133.254883,26.9199219 L133.254883,28.9296875 L123.711914,28.9296875 Z M123.739258,26.3183594 L129.536133,26.3183594 C129.536133,25.0969991 129.317385,24.2425155 128.879883,23.7548828 C128.442381,23.2672502 127.772465,23.014323 126.870117,22.9960938 C124.801096,22.9687499 123.757487,24.007802 123.739258,26.1132812 L123.739258,26.3183594 Z M143.495117,23.7890625 C143.121417,23.679687 142.72038,23.625 142.291992,23.625 C141.708656,23.625 141.134443,23.7731105 140.569336,24.0693359 C140.004229,24.3655614 139.62142,24.7050762 139.420898,25.0878906 L139.420898,35 L135.633789,35 L135.633789,20.2070312 L139.010742,20.2070312 L139.010742,21.3964844 C139.821944,20.4212191 140.943027,19.9335938 142.374023,19.9335938 C142.857099,19.9335938 143.381182,19.9973952 143.946289,20.125 L143.495117,23.7890625 Z M145.012695,40.5371094 L145.368164,37.5429688 C145.860354,37.6705736 146.293292,37.734375 146.666992,37.734375 C148.170906,37.734375 149.127928,37.1145895 149.538086,35.875 L149.838867,34.9589844 L144.588867,20.2070312 L148.649414,20.2070312 L151.670898,29.9277344 L151.821289,29.9277344 L154.706055,20.2070312 L158.424805,20.2070312 L153.297852,36.0800781 C152.732745,37.7845137 151.921555,39.0012984 150.864258,39.7304688 C149.806961,40.4596391 148.530932,40.8242188 147.036133,40.8242188 C146.206702,40.8242188 145.532229,40.7285166 145.012695,40.5371094 Z" id="APIGallery" fill="#00238F" fill-rule="nonzero"></path>
    </g>
</svg>